<svg width="48" height="48" viewBox="0 0 48 48" xmlns="http://www.w3.org/2000/svg"><g fill="none" fill-rule="evenodd"><path fill="color(display-p3 0.973 0.980 0.988)" d="M0 0h48v48H0z"/><g stroke="color(display-p3 0.055 0.357 0.294)" stroke-linejoin="round" stroke-width="2"><path d="M29.268 33.034L44 6m-8.905 0L24.748 25.573c-1.27 2.401-2.057 2.725-4.678 1.925-3.348-1.022-10.042-4.56-13.375-3.013-3.334 1.547-3.615 11.871-.618 13.987 3.356 2.37 13.296 1.515 17.515.549" stroke-linecap="round"/><path d="M16 26l-4 14"/><path d="M24 38c0-3.31.69-4 4-4h8c3.31 0 4 .69 4 4s-.69 4-4 4h-8c-3.31 0-4-.69-4-4z" stroke-linecap="round"/></g></g></svg>