<svg width="190" height="32" viewBox="0 0 190 32" fill="none" xmlns="http://www.w3.org/2000/svg"><g opacity=".7" fill-rule="evenodd" clip-rule="evenodd"><path d="M169.278 2.352c0 1.568.809 2.352 2.427 2.352 1.642 0 2.463-.784 2.463-2.352 0-1.568-.815-2.352-2.445-2.352s-2.445.784-2.445 2.352zm4.605 24.338V6.343h-4.32V26.69h4.32zM65.719.428h4.32V26.69h-4.32V.428zm-47.3 11.76h-3.07l-.713 4.845h2.57v3.35h-3.034l-.928 6.307H9.496l.928-6.307H6.426l-.929 6.307H1.75l.893-6.307H0v-3.35h3.141l.679-4.846H1.178v-3.35h3.141l.893-6.307h3.784l-.928 6.307h3.998l.928-6.307h3.748l-.928 6.307h2.606v3.35zm-7.531 4.845l.714-4.846H7.604l-.714 4.846h3.998zm10.941-9.906c-1.07.903-1.606 2.269-1.606 4.098v1.033c0 1.972.904 3.48 2.713 4.526l2.677 1.568c.88.499 1.458.89 1.731 1.176.274.285.41.665.41 1.14v.499c0 .618-.255 1.081-.767 1.39-.511.309-1.47.463-2.873.463-1.404 0-2.69-.178-3.856-.535v3.885c1.285.332 2.785.499 4.498.499 4.855 0 7.282-1.853 7.282-5.56v-.926c0-1.853-.987-3.361-2.962-4.525l-2.963-1.747c-.667-.404-1.113-.742-1.339-1.015-.226-.273-.34-.648-.34-1.123v-.499c0-.665.197-1.146.59-1.443.393-.297 1.261-.445 2.606-.445s2.564.19 3.659.57V6.343c-1.238-.38-2.642-.57-4.212-.57-2.428 0-4.177.451-5.248 1.354zm20.794-1.283c-1.357 0-2.76.345-4.212 1.034V5.95h-4.07V32h4.32v-5.31h3.105c1.642 0 2.951-.445 3.927-1.336.976-.89 1.463-2.203 1.463-3.938v-11.01c0-1.497-.416-2.632-1.249-3.404-.833-.772-1.928-1.158-3.284-1.158zM41.159 9.8c1.095 0 1.642.51 1.642 1.532v9.479c0 1.282-.702 1.924-2.106 1.924H38.66V10.477c.81-.452 1.643-.677 2.5-.677zm8.693 1.46c0-1.757.53-3.141 1.588-4.15 1.06-1.01 2.666-1.515 4.82-1.515 2.153 0 3.76.504 4.818 1.514 1.06 1.01 1.589 2.394 1.589 4.152v10.12c0 1.758-.53 3.142-1.589 4.151-1.059 1.01-2.665 1.515-4.819 1.515s-3.76-.505-4.819-1.515c-1.059-1.01-1.588-2.393-1.588-4.151V11.26zm8.567.107c0-1.401-.72-2.102-2.16-2.102-1.44 0-2.16.7-2.16 2.102v9.907c0 1.402.72 2.102 2.16 2.102 1.44 0 2.16-.7 2.16-2.102v-9.907zm27.63-5.416h-4.284v16.214c-.785.451-1.594.677-2.427.677-1.143 0-1.714-.57-1.714-1.71V5.95H73.27V21.88c0 1.568.405 2.767 1.214 3.599.809.831 1.97 1.247 3.48 1.247 1.512 0 2.85-.332 4.016-.998v.962h4.07V5.951zm2.338 0h10.745v2.744l-6.247 14.36h6.318v3.635H88.244v-2.78l6.283-14.324h-6.14V5.95zm13.012.499c1.356-.451 3.153-.677 5.39-.677 2.237 0 3.867.493 4.891 1.479 1.023.986 1.535 2.464 1.535 4.436V26.69h-4.07v-1.496c-.928 1.069-2.231 1.603-3.909 1.603s-2.909-.415-3.694-1.247c-.786-.831-1.178-2.102-1.178-3.813v-1.211c0-1.45.345-2.59 1.035-3.421.69-.832 1.808-1.461 3.355-1.889l4.32-1.176v-2.387c-.024-.737-.238-1.271-.643-1.604-.404-.333-1.333-.499-2.784-.499-1.452 0-2.868.25-4.248.748V6.45zm3.177 14.254v1.033c0 1.212.631 1.818 1.892 1.818.976 0 1.832-.262 2.57-.784v-5.203l-2.534.713c-.786.213-1.303.487-1.553.82-.25.332-.375.866-.375 1.603zM124.87 5.95h4.248l-4.462 20.74h-5.248l-4.533-20.74h4.319l1.499 7.555a93.922 93.922 0 011.357 9.87c.262-2.97.714-6.236 1.356-9.8l1.464-7.625zm6.586 1.176c-1.071.903-1.606 2.269-1.606 4.098v1.033c0 1.972.904 3.48 2.713 4.526l2.677 1.568c.881.499 1.458.89 1.731 1.176.274.285.411.665.411 1.14v.499c0 .618-.256 1.081-.768 1.39-.511.309-1.469.463-2.873.463-1.404 0-2.689-.178-3.856-.535v3.885c1.286.332 2.785.499 4.498.499 4.855 0 7.283-1.853 7.283-5.56v-.926c0-1.853-.988-3.361-2.963-4.525l-2.963-1.747c-.667-.404-1.113-.742-1.339-1.015-.226-.273-.339-.648-.339-1.123v-.499c0-.665.196-1.146.589-1.443.393-.297 1.261-.445 2.606-.445s2.564.19 3.659.57V6.343c-1.238-.38-2.642-.57-4.212-.57-2.428 0-4.177.451-5.248 1.354zm12.155 4.134v9.764c0 3.92 2.392 5.88 7.175 5.88 1.809 0 3.451-.215 4.927-.642V22.45c-1.476.451-2.916.677-4.32.677-1.404 0-2.356-.19-2.856-.57-.499-.38-.749-.998-.749-1.853v-2.602h8.46v-6.841c0-1.758-.506-3.142-1.517-4.152-1.012-1.01-2.588-1.514-4.73-1.514-2.142 0-3.742.504-4.801 1.514-1.059 1.01-1.589 2.394-1.589 4.152zm4.177 3.492v-3.457c0-1.401.743-2.102 2.231-2.102 1.487 0 2.231.7 2.231 2.102v3.457h-4.462zm15.796-8.802v-3.67h-2.82l-1.285 3.67h-2.214v3.635h2.035v12.187c0 3.445 1.761 5.167 5.283 5.167.976 0 1.964-.166 2.963-.499v-3.813c-.856.285-1.582.428-2.177.428-1.19 0-1.785-.559-1.785-1.675V9.586h3.712V5.95h-3.712zm21.882-.107c-1.356 0-2.724.345-4.105 1.034V5.95h-4.069v20.74h4.319V10.476c.809-.452 1.618-.677 2.428-.677 1.047 0 1.57.51 1.57 1.532V26.69H190V10.405c0-1.496-.416-2.63-1.249-3.403-.833-.772-1.928-1.158-3.285-1.158z" fill="#0E5B4B"/><path d="M169.278 2.352c0 1.568.809 2.352 2.427 2.352 1.642 0 2.463-.784 2.463-2.352 0-1.568-.815-2.352-2.445-2.352s-2.445.784-2.445 2.352zm4.605 24.338V6.343h-4.32V26.69h4.32zM65.719.428h4.32V26.69h-4.32V.428zm-47.3 11.76h-3.07l-.713 4.845h2.57v3.35h-3.034l-.928 6.307H9.496l.928-6.307H6.426l-.929 6.307H1.75l.893-6.307H0v-3.35h3.141l.679-4.846H1.178v-3.35h3.141l.893-6.307h3.784l-.928 6.307h3.998l.928-6.307h3.748l-.928 6.307h2.606v3.35zm-7.531 4.845l.714-4.846H7.604l-.714 4.846h3.998zm10.941-9.906c-1.07.903-1.606 2.269-1.606 4.098v1.033c0 1.972.904 3.48 2.713 4.526l2.677 1.568c.88.499 1.458.89 1.731 1.176.274.285.41.665.41 1.14v.499c0 .618-.255 1.081-.767 1.39-.511.309-1.47.463-2.873.463-1.404 0-2.69-.178-3.856-.535v3.885c1.285.332 2.785.499 4.498.499 4.855 0 7.282-1.853 7.282-5.56v-.926c0-1.853-.987-3.361-2.962-4.525l-2.963-1.747c-.667-.404-1.113-.742-1.339-1.015-.226-.273-.34-.648-.34-1.123v-.499c0-.665.197-1.146.59-1.443.393-.297 1.261-.445 2.606-.445s2.564.19 3.659.57V6.343c-1.238-.38-2.642-.57-4.212-.57-2.428 0-4.177.451-5.248 1.354zm20.794-1.283c-1.357 0-2.76.345-4.212 1.034V5.95h-4.07V32h4.32v-5.31h3.105c1.642 0 2.951-.445 3.927-1.336.976-.89 1.463-2.203 1.463-3.938v-11.01c0-1.497-.416-2.632-1.249-3.404-.833-.772-1.928-1.158-3.284-1.158zM41.159 9.8c1.095 0 1.642.51 1.642 1.532v9.479c0 1.282-.702 1.924-2.106 1.924H38.66V10.477c.81-.452 1.643-.677 2.5-.677zm8.693 1.46c0-1.757.53-3.141 1.588-4.15 1.06-1.01 2.666-1.515 4.82-1.515 2.153 0 3.76.504 4.818 1.514 1.06 1.01 1.589 2.394 1.589 4.152v10.12c0 1.758-.53 3.142-1.589 4.151-1.059 1.01-2.665 1.515-4.819 1.515s-3.76-.505-4.819-1.515c-1.059-1.01-1.588-2.393-1.588-4.151V11.26zm8.567.107c0-1.401-.72-2.102-2.16-2.102-1.44 0-2.16.7-2.16 2.102v9.907c0 1.402.72 2.102 2.16 2.102 1.44 0 2.16-.7 2.16-2.102v-9.907zm27.63-5.416h-4.284v16.214c-.785.451-1.594.677-2.427.677-1.143 0-1.714-.57-1.714-1.71V5.95H73.27V21.88c0 1.568.405 2.767 1.214 3.599.809.831 1.97 1.247 3.48 1.247 1.512 0 2.85-.332 4.016-.998v.962h4.07V5.951zm2.338 0h10.745v2.744l-6.247 14.36h6.318v3.635H88.244v-2.78l6.283-14.324h-6.14V5.95zm13.012.499c1.356-.451 3.153-.677 5.39-.677 2.237 0 3.867.493 4.891 1.479 1.023.986 1.535 2.464 1.535 4.436V26.69h-4.07v-1.496c-.928 1.069-2.231 1.603-3.909 1.603s-2.909-.415-3.694-1.247c-.786-.831-1.178-2.102-1.178-3.813v-1.211c0-1.45.345-2.59 1.035-3.421.69-.832 1.808-1.461 3.355-1.889l4.32-1.176v-2.387c-.024-.737-.238-1.271-.643-1.604-.404-.333-1.333-.499-2.784-.499-1.452 0-2.868.25-4.248.748V6.45zm3.177 14.254v1.033c0 1.212.631 1.818 1.892 1.818.976 0 1.832-.262 2.57-.784v-5.203l-2.534.713c-.786.213-1.303.487-1.553.82-.25.332-.375.866-.375 1.603zM124.87 5.95h4.248l-4.462 20.74h-5.248l-4.533-20.74h4.319l1.499 7.555a93.922 93.922 0 011.357 9.87c.262-2.97.714-6.236 1.356-9.8l1.464-7.625zm6.586 1.176c-1.071.903-1.606 2.269-1.606 4.098v1.033c0 1.972.904 3.48 2.713 4.526l2.677 1.568c.881.499 1.458.89 1.731 1.176.274.285.411.665.411 1.14v.499c0 .618-.256 1.081-.768 1.39-.511.309-1.469.463-2.873.463-1.404 0-2.689-.178-3.856-.535v3.885c1.286.332 2.785.499 4.498.499 4.855 0 7.283-1.853 7.283-5.56v-.926c0-1.853-.988-3.361-2.963-4.525l-2.963-1.747c-.667-.404-1.113-.742-1.339-1.015-.226-.273-.339-.648-.339-1.123v-.499c0-.665.196-1.146.589-1.443.393-.297 1.261-.445 2.606-.445s2.564.19 3.659.57V6.343c-1.238-.38-2.642-.57-4.212-.57-2.428 0-4.177.451-5.248 1.354zm12.155 4.134v9.764c0 3.92 2.392 5.88 7.175 5.88 1.809 0 3.451-.215 4.927-.642V22.45c-1.476.451-2.916.677-4.32.677-1.404 0-2.356-.19-2.856-.57-.499-.38-.749-.998-.749-1.853v-2.602h8.46v-6.841c0-1.758-.506-3.142-1.517-4.152-1.012-1.01-2.588-1.514-4.73-1.514-2.142 0-3.742.504-4.801 1.514-1.059 1.01-1.589 2.394-1.589 4.152zm4.177 3.492v-3.457c0-1.401.743-2.102 2.231-2.102 1.487 0 2.231.7 2.231 2.102v3.457h-4.462zm15.796-8.802v-3.67h-2.82l-1.285 3.67h-2.214v3.635h2.035v12.187c0 3.445 1.761 5.167 5.283 5.167.976 0 1.964-.166 2.963-.499v-3.813c-.856.285-1.582.428-2.177.428-1.19 0-1.785-.559-1.785-1.675V9.586h3.712V5.95h-3.712zm21.882-.107c-1.356 0-2.724.345-4.105 1.034V5.95h-4.069v20.74h4.319V10.476c.809-.452 1.618-.677 2.428-.677 1.047 0 1.57.51 1.57 1.532V26.69H190V10.405c0-1.496-.416-2.63-1.249-3.403-.833-.772-1.928-1.158-3.285-1.158z" fill="url(#paint0_linear_0_7529)"/></g><defs><linearGradient id="paint0_linear_0_7529" x1="-22.55" y1="0" x2="-22.55" y2="39.6" gradientUnits="userSpaceOnUse"><stop stop-color="#0E5B4B"/><stop offset=".29" stop-color="#3E6549"/><stop offset=".48" stop-color="#727A43"/><stop offset=".6" stop-color="#A0923A"/><stop offset=".69" stop-color="#C7A82F"/><stop offset=".76" stop-color="#E4BA21"/><stop offset=".86" stop-color="#F8C612"/><stop offset="1" stop-color="#FFCB00"/></linearGradient></defs></svg>